<svg width="25" height="25" viewBox="0 0 25 25" fill="none" xmlns="http://www.w3.org/2000/svg">
<path d="M7.29392 7.30216C7.5013 7.09538 7.78242 6.97923 8.07552 6.97923C8.36862 6.97923 8.64974 7.09538 8.85712 7.30216L12.4997 10.9387L16.1422 7.30216C16.2435 7.19367 16.3656 7.10666 16.5013 7.0463C16.6369 6.98595 16.7834 6.9535 16.9319 6.95089C17.0804 6.94827 17.2279 6.97554 17.3656 7.03108C17.5034 7.08661 17.6285 7.16928 17.7335 7.27413C17.8385 7.37898 17.9213 7.50388 17.9769 7.64137C18.0326 7.77886 18.0599 7.92613 18.0573 8.0744C18.0547 8.22266 18.0221 8.36887 17.9617 8.50432C17.9012 8.63977 17.8141 8.76167 17.7054 8.86276L14.0629 12.4993L17.7054 16.1358C17.9008 16.3451 18.0071 16.622 18.0021 16.908C17.997 17.1941 17.881 17.467 17.6783 17.6693C17.4757 17.8716 17.2023 17.9875 16.9157 17.9926C16.6292 17.9976 16.3519 17.8914 16.1422 17.6964L12.4997 14.0599L8.85712 17.6964C8.75586 17.8049 8.63376 17.8919 8.49808 17.9522C8.36241 18.0126 8.21595 18.045 8.06744 18.0477C7.91893 18.0503 7.77142 18.023 7.6337 17.9675C7.49598 17.9119 7.37087 17.8293 7.26585 17.7244C7.16082 17.6196 7.07802 17.4947 7.02239 17.3572C6.96677 17.2197 6.93945 17.0724 6.94207 16.9241C6.94469 16.7759 6.97719 16.6297 7.03764 16.4942C7.0981 16.3588 7.18526 16.2369 7.29392 16.1358L10.9365 12.4993L7.29392 8.86276C7.0868 8.65573 6.97046 8.37508 6.97046 8.08246C6.97046 7.78985 7.0868 7.5092 7.29392 7.30216Z" fill="#AE6D0A"/>
<path fill-rule="evenodd" clip-rule="evenodd" d="M5.59347 0.380996C10.1835 -0.126999 14.8157 -0.126999 19.4057 0.380996C22.1 0.681339 24.2752 2.79994 24.5908 5.5045C25.1364 10.1525 25.1364 14.8475 24.5908 19.4955C24.2737 22.2 22.0985 24.3172 19.4057 24.619C14.8157 25.127 10.1835 25.127 5.59347 24.619C2.89917 24.3172 0.723963 22.2 0.408373 19.4955C-0.136124 14.8477 -0.136124 10.1523 0.408373 5.5045C0.723963 2.79994 2.90064 0.681339 5.59347 0.380996ZM19.1609 2.57468C14.7336 2.08476 10.2656 2.08476 5.83828 2.57468C5.01869 2.66545 4.2537 3.02943 3.66687 3.6078C3.08005 4.18617 2.70567 4.94515 2.60423 5.76214C2.07974 10.2393 2.07974 14.7622 2.60423 19.2393C2.70598 20.056 3.08049 20.8147 3.66729 21.3928C4.25409 21.9708 5.01891 22.3346 5.83828 22.4253C10.2285 22.9141 14.7706 22.9141 19.1609 22.4253C19.98 22.3343 20.7445 21.9704 21.331 21.3923C21.9175 20.8143 22.2917 20.0558 22.3934 19.2393C22.9179 14.7622 22.9179 10.2393 22.3934 5.76214C22.2914 4.94591 21.917 4.18777 21.3305 3.61001C20.7441 3.03226 19.9797 2.66857 19.1609 2.57762V2.57468Z" fill="#AE6D0A"/>
</svg>
