<svg width="21" height="20" viewBox="0 0 21 20" fill="none" xmlns="http://www.w3.org/2000/svg">
<path d="M20.1698 9.69496C20.1698 4.3545 15.8405 0.0251465 10.5 0.0251465C5.15956 0.0251465 0.8302 4.35443 0.8302 9.69496C0.8302 14.5214 4.36633 18.5219 8.9891 19.2473V12.4901H6.53388V9.69496H8.9891V7.56458C8.9891 5.14108 10.4328 3.80242 12.6415 3.80242C13.6995 3.80242 14.8061 3.99128 14.8061 3.99128V6.37096H13.5868C12.3855 6.37096 12.0109 7.11637 12.0109 7.88111V9.69496H14.6928L14.2641 12.4901H12.0109V19.2473C16.6337 18.5219 20.1698 14.5215 20.1698 9.69496Z" fill="#1877F2"/>
<path d="M14.2641 12.4901L14.6928 9.69491H12.0109V7.88106C12.0109 7.11624 12.3855 6.37091 13.5868 6.37091H14.8061V3.99123C14.8061 3.99123 13.6995 3.80237 12.6415 3.80237C10.4328 3.80237 8.9891 5.14103 8.9891 7.56453V9.69491H6.53387V12.4901H8.9891V19.2472C9.48892 19.3256 9.99409 19.3649 10.5 19.3647C11.0059 19.3649 11.5111 19.3256 12.0109 19.2472V12.4901H14.2641Z" fill="white"/>
</svg>
