<svg width="20" height="17" viewBox="0 0 20 17" fill="none" xmlns="http://www.w3.org/2000/svg">
<path d="M4.42053 16.7532V8.45296L2.10317 6.09798L0.0251465 4.79114V15.2885C0.0251465 16.0989 0.616289 16.7532 1.34379 16.7532H4.42053Z" fill="#4285F4"/>
<path d="M14.9694 16.7533H18.0461C18.7758 16.7533 19.3647 16.0965 19.3647 15.2885V4.79126L17.0111 6.2881L14.9694 8.453V16.7533Z" fill="#34A853"/>
<path d="M4.42049 8.45289L4.10516 5.20974L4.42049 2.10571L9.69492 6.49997L14.9693 2.10571L15.3221 5.04215L14.9693 8.45289L9.69492 12.8471L4.42049 8.45289Z" fill="#EA4335"/>
<path d="M14.9694 2.10571V8.45289L19.3647 4.79107V2.83805C19.3647 1.0267 17.5033 -0.00590904 16.2001 1.0804L14.9694 2.10571Z" fill="#FBBC04"/>
<path d="M0.0251465 4.7911L2.04667 6.47533L4.42053 8.45293V2.10574L3.18974 1.08044C1.88432 -0.00595455 0.0251465 1.02673 0.0251465 2.83801V4.79102V4.7911Z" fill="#C5221F"/>
</svg>
