<svg width="21" height="20" viewBox="0 0 21 20" fill="none" xmlns="http://www.w3.org/2000/svg">
<path d="M15.7346 0.0251465H5.4604C2.95704 0.0251465 0.927673 2.05452 0.927673 4.55787V14.832C0.927673 17.3354 2.95704 19.3648 5.4604 19.3648H15.7346C18.2379 19.3648 20.2673 17.3354 20.2673 14.832V4.55787C20.2673 2.05452 18.2379 0.0251465 15.7346 0.0251465Z" fill="url(#paint0_radial_193_244)"/>
<path d="M15.7346 0.0251465H5.4604C2.95704 0.0251465 0.927673 2.05452 0.927673 4.55787V14.832C0.927673 17.3354 2.95704 19.3648 5.4604 19.3648H15.7346C18.2379 19.3648 20.2673 17.3354 20.2673 14.832V4.55787C20.2673 2.05452 18.2379 0.0251465 15.7346 0.0251465Z" fill="url(#paint1_radial_193_244)"/>
<path d="M10.5981 2.1405C8.54647 2.1405 8.28893 2.14949 7.48316 2.18613C6.67891 2.223 6.12992 2.35029 5.6496 2.53712C5.15266 2.73006 4.7312 2.9882 4.31131 3.40823C3.89106 3.82819 3.63292 4.24965 3.43937 4.74637C3.25202 5.22683 3.12457 5.77605 3.08839 6.57993C3.05235 7.38577 3.04291 7.64338 3.04291 9.69512C3.04291 11.7469 3.05197 12.0036 3.08854 12.8093C3.12555 13.6136 3.25285 14.1626 3.43952 14.6429C3.63262 15.1398 3.89075 15.5613 4.31079 15.9812C4.73059 16.4014 5.15206 16.6602 5.64862 16.8531C6.12931 17.0399 6.67838 17.1672 7.48248 17.2041C8.28833 17.2407 8.54563 17.2497 10.5972 17.2497C12.6491 17.2497 12.9058 17.2407 13.7116 17.2041C14.5158 17.1672 15.0654 17.0399 15.5461 16.8531C16.0428 16.6602 16.4637 16.4014 16.8834 15.9812C17.3037 15.5613 17.5618 15.1398 17.7554 14.6431C17.9411 14.1626 18.0686 13.6134 18.1064 12.8095C18.1425 12.0037 18.152 11.7469 18.152 9.69512C18.152 7.64338 18.1425 7.38592 18.1064 6.58008C18.0686 5.77582 17.9411 5.22691 17.7554 4.74659C17.5618 4.24965 17.3037 3.82819 16.8834 3.40823C16.4632 2.98805 16.043 2.72991 15.5457 2.53719C15.0641 2.35029 14.5148 2.22292 13.7105 2.18613C12.9047 2.14949 12.6481 2.1405 10.5958 2.1405H10.5981ZM9.92041 3.50191C10.1216 3.5016 10.346 3.50191 10.5981 3.50191C12.6153 3.50191 12.8543 3.50916 13.6508 3.54535C14.3874 3.57904 14.7872 3.7021 15.0535 3.80552C15.4061 3.94241 15.6574 4.10612 15.9217 4.3706C16.1861 4.63501 16.3497 4.8868 16.487 5.23937C16.5904 5.50529 16.7136 5.90508 16.7471 6.64165C16.7833 7.43805 16.7912 7.67722 16.7912 9.69338C16.7912 11.7095 16.7833 11.9488 16.7471 12.7451C16.7135 13.4817 16.5904 13.8815 16.487 14.1475C16.3501 14.5 16.1861 14.7511 15.9217 15.0153C15.6573 15.2797 15.4062 15.4434 15.0535 15.5803C14.7875 15.6842 14.3874 15.807 13.6508 15.8407C12.8544 15.8768 12.6153 15.8847 10.5981 15.8847C8.58091 15.8847 8.34181 15.8768 7.54549 15.8407C6.80892 15.8067 6.40913 15.6836 6.14261 15.5802C5.79012 15.4432 5.53825 15.2796 5.27384 15.0152C5.00943 14.7508 4.8458 14.4996 4.70853 14.1469C4.60511 13.8809 4.4819 13.4811 4.44835 12.7445C4.41217 11.9481 4.40492 11.7089 4.40492 9.69149C4.40492 7.67413 4.41217 7.43616 4.44835 6.63976C4.48205 5.90319 4.60511 5.50341 4.70853 5.23711C4.8455 4.88454 5.00943 4.63275 5.27391 4.36834C5.53832 4.10393 5.79012 3.94022 6.14269 3.80303C6.40898 3.69916 6.80892 3.57639 7.54549 3.54255C8.24239 3.51105 8.51247 3.5016 9.92041 3.50002V3.50191ZM14.6307 4.75626C14.1303 4.75626 13.7242 5.16194 13.7242 5.6625C13.7242 6.16299 14.1303 6.56905 14.6307 6.56905C15.1312 6.56905 15.5373 6.16299 15.5373 5.6625C15.5373 5.16202 15.1312 4.75596 14.6307 4.75596V4.75626ZM10.5981 5.81548C8.45566 5.81548 6.71857 7.55258 6.71857 9.69512C6.71857 11.8377 8.45566 13.5739 10.5981 13.5739C12.7407 13.5739 14.4772 11.8377 14.4772 9.69512C14.4772 7.55265 12.7405 5.81548 10.598 5.81548H10.5981ZM10.5981 7.17689C11.9888 7.17689 13.1164 8.30425 13.1164 9.69512C13.1164 11.0858 11.9888 12.2133 10.5981 12.2133C9.20734 12.2133 8.07997 11.0858 8.07997 9.69512C8.07997 8.30425 9.20734 7.17689 10.5981 7.17689Z" fill="white"/>
<defs>
<radialGradient id="paint0_radial_193_244" cx="0" cy="0" r="1" gradientUnits="userSpaceOnUse" gradientTransform="translate(6.06476 20.8543) rotate(-90) scale(19.167 17.8268)">
<stop stop-color="#FFDD55"/>
<stop offset="0.1" stop-color="#FFDD55"/>
<stop offset="0.5" stop-color="#FF543E"/>
<stop offset="1" stop-color="#C837AB"/>
</radialGradient>
<radialGradient id="paint1_radial_193_244" cx="0" cy="0" r="1" gradientUnits="userSpaceOnUse" gradientTransform="translate(-2.31179 1.41828) rotate(78.681) scale(8.56776 35.3166)">
<stop stop-color="#3771C8"/>
<stop offset="0.128" stop-color="#3771C8"/>
<stop offset="1" stop-color="#6600FF" stop-opacity="0"/>
</radialGradient>
</defs>
</svg>
