<svg width="21" height="20" viewBox="0 0 21 20" fill="none" xmlns="http://www.w3.org/2000/svg">
<path d="M20.0723 1.44718V17.9427C20.0723 18.3199 19.9225 18.6816 19.6558 18.9483C19.3891 19.2149 19.0274 19.3648 18.6503 19.3648H2.1547C1.77755 19.3648 1.41585 19.2149 1.14917 18.9483C0.882487 18.6816 0.732666 18.3199 0.732666 17.9427L0.732666 1.44718C0.732666 1.07003 0.882487 0.708332 1.14917 0.44165C1.41585 0.174967 1.77755 0.0251465 2.1547 0.0251465L18.6503 0.0251465C19.0274 0.0251465 19.3891 0.174967 19.6558 0.44165C19.9225 0.708332 20.0723 1.07003 20.0723 1.44718V1.44718ZM6.42079 7.41971H3.57673V16.5207H6.42079V7.41971ZM6.67676 4.29124C6.67825 4.07611 6.63737 3.86279 6.55642 3.66346C6.47548 3.46414 6.35606 3.2827 6.205 3.12953C6.05394 2.97635 5.87418 2.85443 5.676 2.77073C5.47781 2.68702 5.26508 2.64317 5.04995 2.64168H4.99876C4.56127 2.64168 4.1417 2.81548 3.83235 3.12483C3.523 3.43418 3.3492 3.85375 3.3492 4.29124C3.3492 4.72873 3.523 5.1483 3.83235 5.45765C4.1417 5.767 4.56127 5.9408 4.99876 5.9408V5.9408C5.2139 5.94609 5.42798 5.90894 5.62877 5.83147C5.82955 5.75399 6.0131 5.63772 6.16893 5.48928C6.32476 5.34085 6.44981 5.16317 6.53695 4.96638C6.62408 4.7696 6.67159 4.55758 6.67676 4.34243V4.29124ZM17.2282 10.9919C17.2282 8.25586 15.4877 7.19218 13.7585 7.19218C13.1923 7.16383 12.6286 7.28442 12.1236 7.54192C11.6185 7.79943 11.1899 8.18484 10.8803 8.65972H10.8006V7.41971H8.12723V16.5207H10.9713V11.6801C10.9302 11.1844 11.0863 10.6924 11.4059 10.3111C11.7254 9.92983 12.1824 9.69001 12.6777 9.64376H12.7858C13.6902 9.64376 14.3614 10.2126 14.3614 11.646V16.5207H17.2055L17.2282 10.9919Z" fill="#0066FF"/>
</svg>
