<svg width="21" height="20" viewBox="0 0 21 20" fill="none" xmlns="http://www.w3.org/2000/svg">
<path d="M10.347 0.0251465C4.86225 0.0251465 0.398666 4.32434 0.396732 9.60793C0.395443 11.2976 0.854437 12.9466 1.72472 14.399L0.312927 19.3648L5.58813 18.0323C7.0555 18.7998 8.6871 19.2002 10.3431 19.1991H10.347C15.8317 19.1991 20.2953 14.8993 20.2972 9.61567C20.2985 7.05639 19.2645 4.64732 17.3853 2.83648C15.5068 1.025 13.0087 0.0257911 10.347 0.0251465ZM10.347 17.5804H10.3437C8.85975 17.5804 7.40412 17.1962 6.13415 16.4703L5.83117 16.2975L2.70202 17.0879L3.53749 14.1482L3.34087 13.8472C2.515 12.5876 2.07537 11.1141 2.07606 9.60793C2.07799 5.2159 5.78862 1.64387 10.3502 1.64387C12.5588 1.64452 14.6352 2.47419 16.1972 3.97945C17.7592 5.48472 18.6185 7.48637 18.6172 9.61502C18.6153 14.0071 14.9053 17.5804 10.3463 17.5804H10.347ZM14.8834 11.6141C14.6346 11.4948 13.4123 10.9153 13.1841 10.8347C12.9565 10.7554 12.7909 10.7142 12.6252 10.954C12.4601 11.1938 11.9831 11.7334 11.8387 11.8926C11.693 12.0525 11.548 12.0718 11.2991 11.9525C11.0503 11.8326 10.249 11.5799 9.30005 10.7638C8.56063 10.1295 8.06167 9.34556 7.91662 9.1051C7.77157 8.86593 7.90115 8.73636 8.02557 8.6171C8.13709 8.51073 8.2744 8.33796 8.39818 8.19807C8.52195 8.05818 8.56321 7.95826 8.64702 7.79839C8.72953 7.63916 8.68827 7.49862 8.62574 7.37936C8.56321 7.25881 8.06683 6.08038 7.8586 5.6014C7.65747 5.13467 7.45247 5.19721 7.29969 5.18947C7.15464 5.18302 6.98961 5.18109 6.82264 5.18109C6.65826 5.18109 6.38815 5.24104 6.15994 5.48085C5.93238 5.72067 5.28966 6.29957 5.28966 7.47799C5.28966 8.65707 6.18057 9.79552 6.30499 9.9554C6.42941 10.1146 8.05845 12.534 10.5526 13.5719C11.1457 13.8175 11.6086 13.9651 11.9702 14.076C12.5659 14.2585 13.108 14.232 13.5361 14.1708C14.0131 14.1018 15.0072 13.5919 15.2135 13.033C15.421 12.4741 15.421 11.9944 15.3592 11.8945C15.2986 11.7946 15.1322 11.7346 14.8834 11.6141Z" fill="#34A853"/>
</svg>
